<svg xmlns="http://www.w3.org/2000/svg" version="1.1" xmlns:xlink="http://www.w3.org/1999/xlink" width="512" height="512" x="0" y="0" viewBox="0 0 512 512" style="enable-background:new 0 0 512 512" xml:space="preserve" class=""><g><path d="M302.228 397.702c10.168 41.03 33.219 76.977 64.615 103.298 31.396-26.321 54.447-62.267 64.615-103.298M222.907 501c.17-1.869.217-3.773.13-5.705-.953-21.193-18.182-38.451-39.373-39.439-16.644-.776-31.246 8.286-38.505 21.865-7.259-13.579-21.862-22.64-38.505-21.865-21.191.988-38.419 18.246-39.373 39.439A42.223 42.223 0 0 0 67.41 501M84.464 248.452 11 363.763h0a88.337 88.337 0 0 0 76.804 44.697h5.236M205.267 247.55l74.214 116.213h0a88.336 88.336 0 0 1-76.804 44.697h-5.236M332.268 26.796h0c-21.061-21.061-55.207-21.061-76.268 0-21.061-21.061-55.207-21.061-76.267 0h0c-21.061 21.061-21.061 55.207 0 76.268l67.737 67.737c4.711 4.712 12.35 4.712 17.062 0l67.737-67.737c21.059-21.062 21.059-55.208-.001-76.268z" style="stroke-width:22;stroke-linecap:round;stroke-linejoin:round;stroke-miterlimit:10;" fill="none" stroke="#D22B2B" stroke-width="22" stroke-linecap="round" stroke-linejoin="round" stroke-miterlimit="10" data-original="#D22B2B" class=""></path><path d="M344.483 367.945c0 16.434-13.323 29.757-29.757 29.757h-29.221c-17.893 0-33.708 8.897-43.263 22.509M501 501v-50.478c0-29.171-23.648-52.82-52.82-52.82h-29.221c-16.434 0-29.757-13.323-29.757-29.757M418.186 325.005c10.468-11.84 15.794-26.213 15.794-43.26 0-37.079-30.058-67.137-67.137-67.137s-67.137 30.058-67.137 67.137c0 16.839 5.718 31.664 15.958 43.449" style="stroke-width:22;stroke-linecap:round;stroke-linejoin:round;stroke-miterlimit:10;" fill="none" stroke="#000000" stroke-width="22" stroke-linecap="round" stroke-linejoin="round" stroke-miterlimit="10" data-original="#000000"></path><path d="M417.696 294.789a82.836 82.836 0 0 1-12.927 1.009c-23.369-.002-44.46-9.749-59.434-25.397-5.955 11.471-16.49 20.183-29.191 23.695v25.081c0 28.043 22.733 50.776 50.776 50.776h0c28.043 0 50.775-22.733 50.775-50.776l.001-24.388zM122.798 377.965c0 16.434-13.323 30.495-29.757 30.495h0C47.731 408.46 11 445.191 11 490.501V501M279.315 501v-10.499c0-45.31-36.731-82.041-82.041-82.041h0c-16.434 0-29.757-13.323-29.757-29.757M155.919 255.729c0 10.89 9.243 20.47 21.828 24.842 13.163 4.202 21.828 13.644 21.827 24.842v21.103c0 30.008-24.326 54.333-54.333 54.333h0c-30.007 0-54.333-24.326-54.333-54.333v-21.982h0c0-12.832 10.389-25.006 23.205-25.006h18.017c13.128 0 23.77-10.656 23.77-23.801" style="stroke-width:22;stroke-linecap:round;stroke-linejoin:round;stroke-miterlimit:10;" fill="none" stroke="#000000" stroke-width="22" stroke-linecap="round" stroke-linejoin="round" stroke-miterlimit="10" data-original="#000000"></path><path d="M198.998 334.471c11.202-12.67 18.001-29.324 18.001-47.565 0-39.677-32.165-71.841-71.841-71.841-39.677 0-71.841 32.164-71.841 71.841 0 18.019 6.634 34.488 17.591 47.099" style="stroke-width:22;stroke-linecap:round;stroke-linejoin:round;stroke-miterlimit:10;" fill="none" stroke="#000000" stroke-width="22" stroke-linecap="round" stroke-linejoin="round" stroke-miterlimit="10" data-original="#000000"></path><path d="M170.995 218.971c1.641-3.566 2.222-6.777 2.222-10.96 0-15.497-12.562-28.059-28.059-28.059s-28.059 12.562-28.059 28.059c0 4.183.396 6.946 2.037 10.512M337.737 392.093l29.029 25.437 32.729-24.093M366.843 449.351h0" style="stroke-width:22;stroke-linecap:round;stroke-linejoin:round;stroke-miterlimit:10;" fill="none" stroke="#000000" stroke-width="22" stroke-linecap="round" stroke-linejoin="round" stroke-miterlimit="10" data-original="#000000"></path></g></svg>