<svg xmlns="http://www.w3.org/2000/svg" version="1.1" xmlns:xlink="http://www.w3.org/1999/xlink" width="512" height="512" x="0" y="0" viewBox="0 0 512 512" style="enable-background:new 0 0 512 512" xml:space="preserve" class=""><g><path d="m167.375 199.782 56.991-18.247M55.884 100.329h0c0-24.668-19.997-44.665-44.665-44.665v0c24.668 0 44.665-19.997 44.665-44.665h0c0 24.668 19.997 44.665 44.665 44.665v0c-24.668.001-44.665 19.998-44.665 44.665zM456.116 187.463h0c0-24.668-19.997-44.665-44.665-44.665h0c24.668 0 44.665-19.997 44.665-44.665h0c0 24.668 19.997 44.665 44.665 44.665h0c-24.668.001-44.665 19.998-44.665 44.665z" style="stroke-width:22;stroke-linecap:round;stroke-linejoin:round;stroke-miterlimit:10;" fill="none" stroke="#D22B2B" stroke-width="22" stroke-linecap="round" stroke-linejoin="round" stroke-miterlimit="10" data-original="#D22B2B" class=""></path><path d="m370.046 268.738 32.076-33.697c13.051-13.71 34.77-14.17 48.389-1.023v0c12.842 12.397 13.954 32.598 2.549 46.329l-55.835 67.222a145.553 145.553 0 0 0-22.709 37.791h0a142.182 142.182 0 0 1-57.145 67.223h0V501H170.674v-62.582h0a87.318 87.318 0 0 1-37.423-71.658v-79.78l-76.725-98.351c-8.537-10.943-7.578-26.533 2.236-36.347h0c10.735-10.736 28.141-10.736 38.876 0l77.877 77.876-35.292-131.712c-4.272-15.943 5.189-32.33 21.132-36.602h0c15.943-4.272 32.33 5.189 36.602 21.132l35.292 131.711V40.885c0-16.505 13.38-29.885 29.885-29.885h0c16.505 0 29.885 13.38 29.885 29.885v173.779L328.317 82.95c4.269-15.929 20.642-25.381 36.57-21.113h0c15.949 4.273 25.402 20.68 21.101 36.621l-42.248 155.46a15.57 15.57 0 0 0 4.755 15.787h0c6.28 5.512 15.79 5.085 21.551-.967z" style="stroke-width:22;stroke-linecap:round;stroke-linejoin:round;stroke-miterlimit:10;" fill="none" stroke="#000000" stroke-width="22" stroke-linecap="round" stroke-linejoin="round" stroke-miterlimit="10" data-original="#000000" class=""></path></g></svg>