<svg xmlns="http://www.w3.org/2000/svg" version="1.1" xmlns:xlink="http://www.w3.org/1999/xlink" width="512" height="512" x="0" y="0" viewBox="0 0 512 512" style="enable-background:new 0 0 512 512" xml:space="preserve" class=""><g><path d="M156.119 68.954h199.762M223.025 68.954l25.505 88.505M263.47 157.459l25.505-88.505M235.105 11l-12.08 57.954M288.975 68.954 276.895 11" style="stroke-width:22;stroke-linejoin:round;stroke-miterlimit:10;" fill="none" stroke="#D22B2B" stroke-width="22" stroke-linejoin="round" stroke-miterlimit="10" data-original="#D22B2B" class=""></path><path d="M457 55a84.965 84.965 0 0 1-34.533 34.533A84.965 84.965 0 0 1 457 124.066a84.965 84.965 0 0 1 34.533-34.533A84.965 84.965 0 0 1 457 55zM55 128a84.965 84.965 0 0 1-34.533 34.533A84.965 84.965 0 0 1 55 197.066a84.965 84.965 0 0 1 34.533-34.533A84.965 84.965 0 0 1 55 128z" style="stroke-width:22;stroke-linecap:round;stroke-linejoin:round;stroke-miterlimit:10;" fill="none" stroke="#D22B2B" stroke-width="22" stroke-linecap="round" stroke-linejoin="round" stroke-miterlimit="10" data-original="#D22B2B" class=""></path><circle cx="256" cy="329.144" r="171.856" style="stroke-width:22;stroke-linecap:round;stroke-linejoin:round;stroke-miterlimit:10;" fill="none" stroke="#000000" stroke-width="22" stroke-linecap="round" stroke-linejoin="round" stroke-miterlimit="10" data-original="#000000" class=""></circle><circle cx="256" cy="329.144" r="117.046" style="stroke-width:22;stroke-linecap:round;stroke-linejoin:round;stroke-miterlimit:10;" fill="none" stroke="#000000" stroke-width="22" stroke-linecap="round" stroke-linejoin="round" stroke-miterlimit="10" data-original="#000000" class=""></circle><path d="m277.598 158.635 78.283-89.681L319.291 11H192.709l-36.59 57.954 78.282 89.681" style="stroke-width:22;stroke-linejoin:round;stroke-miterlimit:10;" fill="none" stroke="#000000" stroke-width="22" stroke-linejoin="round" stroke-miterlimit="10" data-original="#000000" class=""></path></g></svg>