<svg xmlns="http://www.w3.org/2000/svg" version="1.1" xmlns:xlink="http://www.w3.org/1999/xlink" width="512" height="512" x="0" y="0" viewBox="0 0 512 512" style="enable-background:new 0 0 512 512" xml:space="preserve" class=""><g><circle cx="255.992" cy="238.825" r="34.349" style="stroke-width:22;stroke-linecap:round;stroke-linejoin:round;stroke-miterlimit:10;" transform="rotate(-82.027 256.002 238.833)" fill="none" stroke="#D22B2B" stroke-width="22" stroke-linecap="round" stroke-linejoin="round" stroke-miterlimit="10" data-original="#D22B2B" class=""></circle><path d="M83.193 105.382c.596-22.238 7.726-47.22 21.389-74.962 30.617-4.426 56.587-3.479 77.918 2.826m147-.009c21.331-6.296 47.301-7.243 77.918-2.817 13.663 27.75 20.801 52.74 21.397 74.986M75.68 361.938c-20.956-7.44-42.516-21.944-64.68-43.504 5.259-30.486 14.177-54.896 26.762-73.23m436.476-.001c12.585 18.334 21.503 42.744 26.762 73.23-22.181 21.577-43.749 36.089-64.712 43.521m-118.915 86.403c-13.557 17.64-34.014 33.663-61.373 48.077-27.366-14.422-47.824-30.446-61.381-48.093" style="stroke-width:22;stroke-linejoin:round;stroke-miterlimit:10;" fill="none" stroke="#000000" stroke-width="22" stroke-linejoin="round" stroke-miterlimit="10" data-original="#000000"></path><path d="M341.849 122.63c12.838-17.664 15.311-41.854 7.471-62.238a64.458 64.458 0 0 0-46.828-39.951 224.01 224.01 0 0 0-92.994.008 64.463 64.463 0 0 0-46.819 39.943 64.454 64.454 0 0 0 8.02 61.021" style="stroke-width:22;stroke-linecap:round;stroke-linejoin:round;stroke-miterlimit:10;" fill="none" stroke="#D22B2B" stroke-width="22" stroke-linecap="round" stroke-linejoin="round" stroke-miterlimit="10" data-original="#D22B2B" class=""></path><path d="M394.017 283.676a64.489 64.489 0 0 0 60.523-11.229 64.462 64.462 0 0 0 23.52-56.881 223.887 223.887 0 0 0-28.747-88.445 64.465 64.465 0 0 0-52.454-32.185c-21.813-1.152-42.693 9.61-55.53 27.274M256.084 383.97c0 21.838 10.965 42.182 29.291 54.073a64.458 64.458 0 0 0 61.364 4.794 223.945 223.945 0 0 0 75.231-54.676 64.473 64.473 0 0 0 14.398-59.829c-5.643-21.094-21.789-37.578-42.557-44.332M117.871 283.641c-20.768 6.746-36.621 23.588-42.265 44.691a64.453 64.453 0 0 0 14.406 59.837 223.845 223.845 0 0 0 75.239 54.659 64.488 64.488 0 0 0 61.356-4.794 64.477 64.477 0 0 0 29.376-54.08" style="stroke-width:22;stroke-linecap:round;stroke-linejoin:round;stroke-miterlimit:10;" fill="none" stroke="#D22B2B" stroke-width="22" stroke-linecap="round" stroke-linejoin="round" stroke-miterlimit="10" data-original="#D22B2B" class=""></path><path d="M171.706 120.844c-12.838-17.664-34.767-27.067-56.573-25.916a64.49 64.49 0 0 0-52.471 32.185 224.056 224.056 0 0 0-28.722 88.453 64.456 64.456 0 0 0 23.52 56.873c16.962 13.752 39.783 18.156 60.55 11.411" style="stroke-width:22;stroke-linecap:round;stroke-linejoin:round;stroke-miterlimit:10;" fill="none" stroke="#D22B2B" stroke-width="22" stroke-linecap="round" stroke-linejoin="round" stroke-miterlimit="10" data-original="#D22B2B" class=""></path><path d="M310.831 314.301a41.439 41.439 0 0 1 5.161 39.233 41.47 41.47 0 0 1-30.102 25.684 144.163 144.163 0 0 1-59.788-.008 41.46 41.46 0 0 1-30.094-25.676 41.458 41.458 0 0 1 5.153-39.233 41.45 41.45 0 0 1-35.721 17.028 41.438 41.438 0 0 1-33.728-20.694 144.02 144.02 0 0 1-18.465-56.857 41.458 41.458 0 0 1 15.116-36.562 41.47 41.47 0 0 1 38.906-7.219 41.444 41.444 0 0 1-17.975-67.179 143.87 143.87 0 0 1 48.371-35.133 41.41 41.41 0 0 1 39.437 3.079 41.434 41.434 0 0 1 18.889 34.765v.009-.009a41.468 41.468 0 0 1 18.89-34.774 41.441 41.441 0 0 1 39.453-3.079 143.871 143.871 0 0 1 48.355 35.149 41.437 41.437 0 0 1-17.966 67.163v.008a41.446 41.446 0 0 1 54.031 43.781 144.049 144.049 0 0 1-18.481 56.857 41.446 41.446 0 0 1-33.72 20.686 41.438 41.438 0 0 1-35.713-17.019h-.009z" style="stroke-width:22;stroke-linecap:round;stroke-linejoin:round;stroke-miterlimit:10;" fill="none" stroke="#000000" stroke-width="22" stroke-linecap="round" stroke-linejoin="round" stroke-miterlimit="10" data-original="#000000"></path></g></svg>